<svg width="42" height="34" viewBox="0 0 42 34" fill="none" xmlns="http://www.w3.org/2000/svg">
<path d="M23.3261 1.72613C23.8762 1.17622 24.6222 0.867294 25.4 0.867294C26.1778 0.867294 26.9238 1.17622 27.4739 1.72613L40.6739 14.9261C41.2238 15.4762 41.5327 16.2222 41.5327 17C41.5327 17.7778 41.2238 18.5238 40.6739 19.0739L27.4739 32.2739C26.9206 32.8082 26.1797 33.1039 25.4106 33.0972C24.6414 33.0905 23.9057 32.782 23.3619 32.2381C22.818 31.6943 22.5095 30.9586 22.5028 30.1894C22.4961 29.4203 22.7918 28.6794 23.3261 28.1261L31.2667 19.9333H3.4C2.62203 19.9333 1.87593 19.6243 1.32582 19.0742C0.775714 18.5241 0.466667 17.778 0.466667 17C0.466667 16.222 0.775714 15.4759 1.32582 14.9258C1.87593 14.3757 2.62203 14.0667 3.4 14.0667H31.2667L23.3261 5.87387C22.7762 5.32379 22.4673 4.57782 22.4673 3.8C22.4673 3.02219 22.7762 2.27622 23.3261 1.72613Z" fill="black"/>
</svg>
