<svg width="478" height="472" viewBox="0 0 478 472" fill="none" xmlns="http://www.w3.org/2000/svg">
<path opacity="0.7" d="M64.9409 157.733C64.9409 157.733 38.2876 225.701 75.7437 294.141C113.2 362.581 190.349 398.736 252.097 429.652C313.845 460.568 377.964 445.512 408.432 394.875C438.899 344.239 397.113 308.093 397.055 235.887C396.998 163.68 408.002 144.564 368.375 83.5631C328.749 22.5618 231.61 9.05314 158.151 54.2991C84.6919 99.545 64.9409 157.733 64.9409 157.733Z" fill="#CCAFF2" fill-opacity="0.6"/>
<path d="M58.5645 174.13C94.7204 138.438 125.341 168.382 138.247 120.455C167.386 12.1873 288.243 13.2162 304.132 90.2561C332.764 229.024 457.475 140.902 456.547 240.286C455.591 346.401 376.53 429.086 234.755 437.308C107.732 444.719 -1.34803 233.272 58.5645 174.13Z" fill="#B18DD5"/>
<path opacity="0.7" d="M58.5645 174.13C94.7204 138.438 125.341 168.381 138.247 120.455C167.386 12.1873 288.243 13.2162 304.132 90.2561C332.764 229.024 457.475 140.902 456.547 240.286C455.591 346.401 376.53 429.086 234.755 437.308C107.732 444.719 -1.34803 233.272 58.5645 174.13Z" fill="#9B5EEA"/>
<path d="M148.276 113.28C148.046 111.392 148.916 110.174 150.78 109.957C152.645 109.74 153.773 110.693 154.002 112.619L154.738 118.765C154.958 120.653 154.088 121.87 152.224 122.087C150.36 122.305 149.232 121.351 149.002 119.425L148.276 113.28ZM150.905 119.34C151.01 120.171 151.402 120.473 152.023 120.407C152.645 120.341 152.979 119.945 152.855 119.114L152.1 112.704C151.995 111.873 151.574 111.571 150.981 111.647C150.389 111.722 150.025 112.1 150.15 112.931L150.905 119.34ZM158.266 109.23L160.025 109.022L154.777 128.582L153.018 128.79L158.266 109.23ZM158.467 119.038C158.237 117.15 159.117 115.923 160.981 115.715C162.845 115.508 163.973 116.452 164.203 118.368L164.929 124.513C165.159 126.401 164.289 127.619 162.415 127.836C160.541 128.054 159.423 127.1 159.193 125.174L158.467 119.038ZM161.105 125.089C161.201 125.92 161.593 126.232 162.214 126.156C162.836 126.081 163.17 125.694 163.056 124.863L162.291 118.453C162.195 117.632 161.774 117.33 161.182 117.396C160.589 117.462 160.226 117.858 160.35 118.68L161.105 125.089Z" fill="#263238"/>
<path d="M169.365 132.084L147.224 134.643C146.721 134.701 146.215 134.56 145.817 134.25C145.419 133.94 145.162 133.487 145.102 132.991L142.444 110.448C142.397 110.028 142.446 109.604 142.586 109.205C142.727 108.807 142.956 108.444 143.257 108.144L152.492 99.1671C152.936 98.7316 153.516 98.4558 154.138 98.384C154.761 98.3121 155.389 98.4482 155.924 98.7706L167.004 105.379C167.369 105.597 167.678 105.896 167.908 106.251C168.139 106.606 168.284 107.008 168.333 107.427L171.009 129.97C171.075 130.465 170.938 130.966 170.63 131.363C170.322 131.759 169.867 132.019 169.365 132.084Z" stroke="#263238" stroke-linecap="round" stroke-linejoin="round"/>
<path d="M155.981 101.669C156.015 101.946 155.966 102.227 155.838 102.476C155.71 102.725 155.511 102.93 155.264 103.067C155.018 103.203 154.736 103.264 154.454 103.242C154.172 103.22 153.904 103.116 153.682 102.942C153.461 102.769 153.297 102.535 153.211 102.269C153.124 102.003 153.12 101.718 153.199 101.45C153.277 101.182 153.434 100.943 153.651 100.764C153.867 100.584 154.132 100.472 154.413 100.442C154.786 100.399 155.161 100.505 155.455 100.735C155.749 100.965 155.938 101.301 155.981 101.669Z" stroke="#263238" stroke-linecap="round" stroke-linejoin="round"/>
<path d="M154.576 85.9043C154.576 85.9043 158.897 102.33 154.576 101.858" stroke="#263238" stroke-linecap="round" stroke-linejoin="round"/>
<path d="M153.476 98.5542C154.318 93.9853 158.553 86.2822 158.553 86.2822" stroke="#263238" stroke-linecap="round" stroke-linejoin="round"/>
<path d="M154.576 101.829C154.323 101.813 154.082 101.72 153.885 101.563C153.688 101.406 153.545 101.192 153.476 100.951" stroke="#263238" stroke-linecap="round" stroke-linejoin="round"/>
<path d="M173.858 91.9736C177.733 95.0662 180.703 99.1231 182.462 103.726" stroke="#263238" stroke-linecap="round" stroke-linejoin="round"/>
<path d="M129.108 106.549C130.219 102.329 132.323 98.428 135.25 95.1631C138.177 91.8981 141.843 89.3619 145.95 87.761C150.058 86.16 154.49 85.5396 158.886 85.9502C163.282 86.3608 167.518 87.7908 171.248 90.1238" stroke="#263238" stroke-linecap="round" stroke-linejoin="round"/>
<path d="M137.836 134.378C132.781 130.045 129.473 124.061 128.515 117.519" stroke="#263238" stroke-linecap="round" stroke-linejoin="round"/>
<path d="M155.149 141.175C150.035 140.973 145.075 139.39 140.809 136.597" stroke="#263238" stroke-linecap="round" stroke-linejoin="round"/>
<path d="M183.982 109.504C185.06 116.768 183.172 124.157 178.733 130.047C174.294 135.937 167.668 139.844 160.312 140.911" stroke="#263238" stroke-linecap="round" stroke-linejoin="round"/>
<path d="M85.2855 201.615L120.484 208.354L116.384 229.234C116.304 229.641 116.064 230 115.716 230.232C115.368 230.464 114.94 230.551 114.528 230.472L82.4302 224.327C82.0177 224.248 81.6539 224.01 81.4188 223.666C81.1837 223.323 81.0965 222.901 81.1765 222.493L85.2761 201.613L85.2855 201.615Z" stroke="#263238" stroke-width="0.998248" stroke-linecap="round" stroke-linejoin="round"/>
<path d="M121.708 208.83L84.6572 201.778L85.7428 196.216C85.8225 195.808 86.0631 195.448 86.4116 195.215C86.7602 194.982 87.1882 194.896 87.6015 194.974L121.574 201.44C121.974 201.526 122.325 201.762 122.553 202.097C122.782 202.433 122.87 202.842 122.8 203.241L121.714 208.802L121.708 208.83Z" stroke="#263238" stroke-linecap="round" stroke-linejoin="round"/>
<path d="M107.138 198.663L102.097 197.703L96.3211 227.291L101.362 228.25L107.138 198.663Z" stroke="#263238" stroke-linecap="round" stroke-linejoin="round"/>
<path d="M104.615 198.183C104.615 198.183 113.363 191.877 117.407 193.784C121.45 195.691 119.452 201.006 117.407 200.619" stroke="#263238" stroke-linecap="round" stroke-linejoin="round"/>
<path d="M108.076 198.834C108.076 198.834 115.189 195.341 116.221 196.946C117.254 198.551 114.185 200.033 111.823 199.58" stroke="#263238" stroke-linecap="round" stroke-linejoin="round"/>
<path d="M104.854 197.749C104.854 197.749 108.544 191.141 108.066 189.008H110.523C110.523 189.008 111.326 191.519 108.458 195.814" stroke="#263238" stroke-linecap="round" stroke-linejoin="round"/>
<path d="M104.615 198.183C104.615 198.183 98.8791 189.121 94.3955 189.413C89.9118 189.706 89.7876 195.36 91.8238 195.747" stroke="#263238" stroke-linecap="round" stroke-linejoin="round"/>
<path d="M101.154 197.523C101.154 197.523 95.8677 191.66 94.3095 192.755C92.7512 193.85 95.0456 196.362 97.4069 196.805" stroke="#263238" stroke-linecap="round" stroke-linejoin="round"/>
<path d="M104.558 197.692C104.558 197.692 103.602 190.187 104.873 188.403L102.579 187.459C102.579 187.459 100.896 189.498 101.948 194.539" stroke="#263238" stroke-linecap="round" stroke-linejoin="round"/>
<path d="M130.647 187.572C134.588 192.49 137.132 198.355 138.018 204.564" stroke="#263238" stroke-linecap="round" stroke-linejoin="round"/>
<path d="M70.7441 193.237C73.3348 188.291 77.072 184.019 81.6511 180.77C86.2303 177.521 91.522 175.385 97.0953 174.538C102.668 173.69 108.366 174.155 113.723 175.893C119.08 177.632 123.945 180.595 127.922 184.542" stroke="#263238" stroke-linecap="round" stroke-linejoin="round"/>
<path d="M73.6121 230.335C68.5607 223.525 66.1522 215.151 66.8245 206.735" stroke="#263238" stroke-linecap="round" stroke-linejoin="round"/>
<path d="M93.277 243.617C86.9503 241.949 81.2114 238.591 76.6904 233.913" stroke="#263238" stroke-linecap="round" stroke-linejoin="round"/>
<path d="M138.247 212.211C137.512 221.558 133.048 230.234 125.835 236.331C118.623 242.428 109.253 245.446 99.7874 244.722" stroke="#263238" stroke-linecap="round" stroke-linejoin="round"/>
<path d="M279.85 118.085L276.848 116.574C277.294 115.272 277.444 113.89 277.288 112.524C278.244 112.978 279.257 113.468 280.156 113.874C280.108 115.092 280.031 116.527 279.85 118.085Z" stroke="#263238" stroke-linecap="round" stroke-linejoin="round"/>
<path d="M284.219 115.819C285.17 116.298 286.188 116.635 287.24 116.819C288.341 122.624 287.477 128.624 284.783 133.896C284.008 135.388 275.873 131.272 276.638 129.78C278.381 126.093 279.467 122.136 279.85 118.084C280.031 116.527 280.137 115.092 280.184 113.874C281.886 114.667 283.377 115.394 284.219 115.819Z" stroke="#263238" stroke-linecap="round" stroke-linejoin="round"/>
<path d="M293.922 97.0995C296.192 98.246 297.97 100.159 298.933 102.49C299.896 104.821 299.981 107.416 299.17 109.803C298.36 112.191 296.71 114.212 294.519 115.499C292.328 116.787 289.741 117.255 287.23 116.82C286.179 116.635 285.161 116.298 284.209 115.819C283.368 115.394 281.877 114.667 280.175 113.874C279.219 113.431 278.263 112.978 277.307 112.524C274.955 111.458 272.68 110.476 271.504 110.098L281.79 90.2744C283.932 91.8226 291.513 95.8818 293.922 97.0995Z" stroke="#263238" stroke-linecap="round" stroke-linejoin="round"/>
<path d="M271.8 80.8906C274.682 84.4408 278.036 87.5907 281.771 90.2551L271.485 110.079C267.108 108.663 262.558 107.835 257.957 107.615L253.971 107.408L269.267 77.832L271.8 80.8906Z" stroke="#263238" stroke-linecap="round" stroke-linejoin="round"/>
<path d="M249.334 108.229L267.269 73.6311C267.407 73.3699 267.644 73.1731 267.929 73.083C268.213 72.9929 268.522 73.0169 268.789 73.1497L270.108 73.8199C270.374 73.9552 270.576 74.1886 270.669 74.4696C270.762 74.7506 270.739 75.0565 270.605 75.3209L269.295 77.8414L253.999 107.417L252.699 109.937C252.632 110.068 252.539 110.183 252.425 110.278C252.312 110.373 252.182 110.445 252.04 110.489C251.899 110.534 251.75 110.551 251.603 110.539C251.455 110.527 251.311 110.486 251.179 110.419L249.85 109.749C249.713 109.685 249.589 109.595 249.488 109.483C249.387 109.371 249.31 109.24 249.261 109.098C249.213 108.956 249.195 108.806 249.207 108.656C249.22 108.507 249.263 108.361 249.334 108.229Z" stroke="#263238" stroke-linecap="round" stroke-linejoin="round"/>
<path d="M249.87 86.6588L242.958 83.166" stroke="#263238" stroke-linecap="round" stroke-linejoin="round"/>
<path d="M257.967 75.7089L253.608 68.1758" stroke="#263238" stroke-linecap="round" stroke-linejoin="round"/>
<path d="M245.616 99.5439L236.887 100.46" stroke="#263238" stroke-linecap="round" stroke-linejoin="round"/>
<path d="M303.396 66.9579C297.362 61.4387 289.941 57.6153 281.905 55.8848" stroke="#263238" stroke-linecap="round" stroke-linejoin="round"/>
<path d="M290.012 142.543C296.716 139.741 302.656 135.416 307.348 129.919C312.04 124.423 315.352 117.91 317.014 110.911C318.676 103.912 318.641 96.6247 316.913 89.6414C315.185 82.6582 311.811 76.1765 307.067 70.7236" stroke="#263238" stroke-linecap="round" stroke-linejoin="round"/>
<path d="M241.916 135.171C250.289 142.278 260.969 146.177 272.011 146.159" stroke="#263238" stroke-linecap="round" stroke-linejoin="round"/>
<path d="M226.572 108.881C228.117 117.096 231.924 124.732 237.575 130.952" stroke="#263238" stroke-linecap="round" stroke-linejoin="round"/>
<path d="M272.011 54.8271C259.744 54.8271 247.98 59.6389 239.306 68.2038C230.632 76.7687 225.759 88.3852 225.759 100.498" stroke="#263238" stroke-linecap="round" stroke-linejoin="round"/>
<path d="M190.1 174.026C186.219 170.599 182.194 172.138 180.139 173.299C179.728 170.977 178.227 166.974 173.103 166.295C167.501 165.558 162.912 170.949 164.413 178.463C165.503 183.872 169.002 188.847 170.875 191.16C171.095 191.443 171.306 191.688 171.478 191.887H172.434C175.455 191.764 181.535 191.169 186.391 188.469C193.112 184.693 194.307 177.746 190.1 174.026Z" stroke="#263238" stroke-linecap="round" stroke-linejoin="round"/>
<path d="M168.304 195.408C168.304 195.408 168.046 195.871 167.692 196.683" stroke="#263238" stroke-linecap="round" stroke-linejoin="round"/>
<path d="M166.717 199.316C165.187 204.254 164.136 212.712 172.281 217.838C192.414 230.516 199.192 200.61 183.753 203.3C173.151 205.188 184.364 232.857 200.961 227.278" stroke="#263238" stroke-linecap="round" stroke-linejoin="round" stroke-dasharray="2.98 2.98"/>
<path d="M202.347 226.758C202.768 226.569 203.198 226.361 203.628 226.135" stroke="#263238" stroke-linecap="round" stroke-linejoin="round"/>
<path d="M177.52 409.469C177.52 409.469 166.153 417.106 161.574 416.596C161.071 416.571 160.593 416.37 160.226 416.03C157.243 412.99 154.843 407.647 154.843 407.647C154.843 407.647 156.268 405.703 160.656 410.866L163.438 408.346L157.702 402.625C157.702 402.625 160.943 400.086 166.449 403.324C166.258 402.927 162.711 395.3 165.388 384.916L152.004 372.162L163.878 361.948L164.834 361.155C164.834 361.155 165.579 361.882 166.746 363.043C167.912 364.204 169.528 365.602 171.277 367.121C175.464 370.756 180.531 374.673 182.749 374.673C186.745 374.541 177.52 409.469 177.52 409.469Z" fill="white"/>
<mask id="mask0_25_573" style="mask-type:luminance" maskUnits="userSpaceOnUse" x="152" y="361" width="32" height="56">
<path d="M177.52 409.469C177.52 409.469 166.153 417.106 161.574 416.596C161.071 416.571 160.593 416.37 160.226 416.03C157.243 412.99 154.843 407.647 154.843 407.647C154.843 407.647 156.268 405.703 160.656 410.866L163.438 408.346L157.702 402.625C157.702 402.625 160.943 400.086 166.449 403.324C166.258 402.927 162.711 395.3 165.388 384.916L152.004 372.162L163.878 361.948L164.834 361.155C164.834 361.155 165.579 361.882 166.746 363.043C167.912 364.204 169.528 365.602 171.277 367.121C175.464 370.756 180.531 374.673 182.749 374.673C186.745 374.541 177.52 409.469 177.52 409.469Z" fill="white"/>
</mask>
<g mask="url(#mask0_25_573)">
<path opacity="0.4" d="M168.734 404.466C168.734 404.466 162.252 411.074 161.574 416.596C161.071 416.571 160.593 416.37 160.226 416.03C157.243 412.99 154.843 407.647 154.843 407.647C154.843 407.647 156.268 405.703 160.656 410.866L163.438 408.346L157.702 402.625C157.702 402.625 160.943 400.086 166.449 403.324C166.258 402.927 162.711 395.3 165.388 384.916L152.004 372.162L163.878 361.948L166.746 363.015C167.922 364.11 169.528 365.573 171.277 367.093C168.763 370.727 163.381 378.251 163.381 378.251L168.036 384.482C168.036 384.482 165.168 400.19 168.734 404.466Z" fill="#FE75BD" fill-opacity="0.6"/>
</g>
<path d="M177.52 409.469C177.52 409.469 166.153 417.106 161.574 416.596C161.071 416.571 160.593 416.37 160.226 416.03C157.243 412.99 154.843 407.647 154.843 407.647C154.843 407.647 156.268 405.703 160.656 410.866L163.438 408.346L157.702 402.625C157.702 402.625 160.943 400.086 166.449 403.324C166.258 402.927 162.711 395.3 165.388 384.916L152.004 372.162L163.878 361.948L164.834 361.155C164.834 361.155 165.579 361.882 166.746 363.043C167.912 364.204 169.528 365.602 171.277 367.121C175.464 370.756 180.531 374.673 182.749 374.673C186.745 374.541 177.52 409.469 177.52 409.469Z" stroke="#263238" stroke-linecap="round" stroke-linejoin="round"/>
<path d="M163.476 408.346C164.106 406.486 165.126 404.778 166.468 403.333" stroke="#263238" stroke-linecap="round" stroke-linejoin="round"/>
<path d="M375.507 320.563C373.714 323.146 371.546 325.456 369.073 327.417C348.175 344.503 299.993 352.905 299.993 352.905C299.993 352.905 298.377 355.293 295.892 358.692C291.437 364.799 284.142 374.183 278.196 378.884C275.682 380.876 273.416 382.027 271.686 381.716L280.729 414.69L284.773 429.001C284.773 429.001 243.226 446.937 172.166 426.433C172.166 426.433 171.353 417.276 171.956 415.322C171.956 415.228 172.013 415.133 172.051 415.029C172.775 413.729 173.719 412.56 174.843 411.574C174.843 411.574 174.441 405.684 174.241 399.689C174.011 395.868 174.059 392.035 174.384 388.22C174.891 385.199 177.128 377.892 178.256 374.305L178.915 372.219L175.378 339.519L174.365 330.079L174.307 329.588C174.307 329.522 174.307 329.446 174.307 329.352L173.753 324.302L155.474 329.815C155.474 329.815 156.43 331.929 157.75 334.893C160.149 340.321 163.677 348.581 164.442 351.885C164.499 352.155 164.576 352.42 164.671 352.678C166.363 357.445 172.807 361.778 172.807 361.778L155.493 381.753L150.379 378.223C149.724 378.701 149.034 379.13 148.314 379.507C144.949 381.31 137.893 383.962 130.15 379.913C126.794 378.05 123.88 375.501 121.603 372.436C108.028 355.029 102.12 340.784 104.041 324.103C105.963 307.423 181.984 255.947 197.07 256.485L219.507 261.375C219.995 260.978 221.304 259.959 222.318 260.006C226.4 260.213 226.505 264.896 226.505 264.896L276.791 272.957C276.791 272.957 282.001 270.38 282.909 270.418C283.566 270.462 284.201 270.667 284.757 271.015C285.313 271.363 285.772 271.842 286.093 272.41C286.093 272.41 299.113 264.707 303.301 266.5C317.086 272.372 385.689 305.289 375.507 320.563Z" fill="#7E2E65" fill-opacity="0.88"/>
<path opacity="0.2" d="M200.808 402.144C195.094 408.346 187.421 412.455 179.04 413.802C176.392 414.217 174.069 414.633 172.032 415.048C172.756 413.747 173.7 412.578 174.824 411.593C174.824 411.593 174.422 405.702 174.221 399.708C180.12 403.55 190.407 407.987 200.808 402.144Z" fill="black"/>
<path opacity="0.2" d="M178.237 374.353L178.896 372.267L175.359 339.566C180.646 347.052 199.498 372.55 212.49 375.306C226.075 378.176 189.757 383.264 178.237 374.353Z" fill="black"/>
<path opacity="0.2" d="M280.71 414.737C266.514 413.141 246.447 409.611 244.44 402.276C241.314 390.816 256.523 383.943 278.196 378.931C275.682 380.923 273.416 382.074 271.686 381.763L280.71 414.737Z" fill="black"/>
<path opacity="0.2" d="M369.064 327.426C348.166 344.513 299.983 352.914 299.983 352.914C299.983 352.914 298.368 355.302 295.882 358.701C288.793 341.988 287.71 323.383 292.813 305.978C292.813 305.978 296.523 325.802 311.933 330.522C311.933 330.522 300.136 321.847 304.285 300.966C304.285 300.966 308.31 325.51 334.495 332.326C347.2 335.696 359.638 332.033 369.064 327.426Z" fill="black"/>
<path opacity="0.2" d="M174.288 329.654L173.715 324.368L155.436 329.881C155.436 329.881 156.392 331.995 157.711 334.959C150.723 334.251 137.463 340.623 135.15 333.675C132.358 325.255 149.49 328.153 149.49 328.153L165.684 318.855C162.625 305.922 170.417 296.199 170.417 296.199L171.898 305.223C172.606 288.071 179.403 278.688 179.403 278.688C173.782 292.253 173.935 325.68 174.288 329.654Z" fill="black"/>
<path opacity="0.2" d="M172.797 361.806L155.484 381.781L150.369 378.251C149.715 378.729 149.024 379.158 148.304 379.535C144.939 381.338 137.884 383.99 130.14 379.941C135.752 372.275 147.348 360.994 161.124 356.643C157.743 361.612 154.696 366.797 152.004 372.162L155.56 375.617C155.56 375.617 164.432 365.629 172.797 361.806Z" fill="black"/>
<path opacity="0.2" d="M214.832 273.826C214.832 275.591 213.704 295.538 228.427 300.853C243.149 306.168 256.208 297.181 256.208 297.181C256.208 297.181 233.637 318.685 219.88 307.187C206.123 295.689 214.832 273.826 214.832 273.826Z" fill="black"/>
<path d="M172.137 426.471C172.137 426.471 171.344 417.314 171.937 415.369C172.434 413.727 174.805 411.593 174.805 411.593C174.805 411.593 173.552 393.034 174.355 388.248C175.044 384.142 178.887 372.2 178.887 372.2L173.705 324.302L155.427 329.824C155.427 329.824 163.208 346.816 164.413 351.857C165.618 356.898 172.788 361.741 172.788 361.741L155.474 381.706L150.36 378.185C150.36 378.185 135.255 389.853 121.613 372.408C107.971 354.963 102.11 340.756 104.022 324.028C105.934 307.3 181.984 255.881 197.07 256.409L219.507 261.309C219.985 260.912 221.305 259.893 222.308 259.94C226.39 260.148 226.496 264.83 226.496 264.83L276.781 272.892C276.781 272.892 282.001 270.314 282.909 270.352C283.564 270.397 284.198 270.603 284.752 270.951C285.306 271.299 285.763 271.778 286.083 272.344C286.083 272.344 299.104 264.65 303.291 266.435C317.057 272.306 385.65 305.224 375.479 320.497C361.033 342.209 299.955 352.886 299.955 352.886C299.955 352.886 279.64 383.094 271.638 381.697L284.726 428.982" stroke="#263238" stroke-linecap="round" stroke-linejoin="round"/>
<path d="M322.363 323.876C345.441 338.924 364.045 336.148 378.605 316.777C378.605 316.777 390.727 301.343 389.866 284.681C389.006 268.02 384.981 213.74 332.449 227.617C323.797 229.901 303.616 256.588 301.924 263.923C301.14 267.274 293.043 284.332 285.175 301.994" fill="#FE75BD" fill-opacity="0.6"/>
<path d="M322.363 323.876C345.441 338.924 364.045 336.148 378.605 316.777C378.605 316.777 390.727 301.343 389.866 284.681C389.006 268.02 384.981 213.74 332.449 227.617C323.797 229.901 303.616 256.588 301.924 263.923C301.14 267.274 293.043 284.332 285.175 301.994" stroke="#263238" stroke-linecap="round" stroke-linejoin="round"/>
<path d="M259.927 164.406C259.927 164.406 274.63 162.207 284.84 171.231C297.756 182.644 312.258 213.419 291.609 264.414C291.609 264.414 261.103 244.42 209.039 257.806C209.039 257.806 213.523 245.845 205.655 208.189C202.099 191.15 211.047 151.898 259.927 164.406Z" fill="#263238"/>
<path d="M237.643 292.375C259.401 295.859 282.517 272.07 282.517 272.07C282.517 272.07 270.691 270.635 269.63 265.15C266.236 247.847 279.888 226.446 279.888 226.446C279.888 226.446 227.06 227.891 236.295 239.662C238.013 241.816 239.419 244.196 240.472 246.733C243.675 254.502 241.428 260.364 239.755 261.837C239.634 261.935 239.502 262.02 239.363 262.092C236.17 263.527 223.044 261.384 223.044 261.384C223.044 261.384 217.786 289.194 237.643 292.375Z" fill="white" stroke="#263238" stroke-linecap="round" stroke-linejoin="round"/>
<path d="M275.032 278.659C275.032 278.659 264.994 282.624 250.3 281.444L243.685 284.644" stroke="#263238" stroke-linecap="round" stroke-linejoin="round"/>
<path d="M237.088 284.144L236.61 279.858C236.61 279.858 225.769 276.507 222.414 270.145" stroke="#263238" stroke-linecap="round" stroke-linejoin="round"/>
<path d="M239.755 261.866C255.931 266.038 263.531 245.553 263.531 245.553C263.531 245.553 250.587 241.777 240.472 246.8C243.675 254.569 241.457 260.431 239.755 261.866Z" fill="#263238"/>
<path d="M280.825 215.694C284.754 193.879 280.385 167.702 246.753 169.873C222.729 171.421 222.93 197.428 224.517 205.197C227.194 218.253 223.36 223.388 227.48 234.357C230.444 242.24 237.318 251.057 245.415 254.361C250.396 256.39 270.558 242.419 272.049 236.028" fill="white"/>
<path d="M280.825 215.694C284.754 193.879 280.385 167.702 246.753 169.873C222.729 171.421 222.93 197.428 224.517 205.197C227.194 218.253 223.36 223.388 227.48 234.357C230.444 242.24 237.318 251.057 245.415 254.361C250.396 256.39 270.558 242.419 272.049 236.028" stroke="#263238" stroke-linecap="round" stroke-linejoin="round"/>
<path d="M238.57 209.266C238.369 211.72 238.073 217.762 232.834 222.255C229.431 225.153 237.232 228.117 237.232 228.117" stroke="#263238" stroke-linecap="round" stroke-linejoin="round"/>
<path d="M232.987 200.609C232.987 200.609 225.568 197.041 220.559 202.931" stroke="#263238" stroke-linecap="round" stroke-linejoin="round"/>
<path d="M245.434 200.127C250.65 198.634 256.215 198.852 261.294 200.75" stroke="#263238" stroke-linecap="round" stroke-linejoin="round"/>
<path d="M253.139 210.446C253.369 212.551 254.803 214.127 256.342 213.958C257.881 213.788 258.942 211.956 258.713 209.851C258.483 207.746 257.049 206.179 255.51 206.339C253.971 206.5 252.91 208.341 253.139 210.446Z" fill="#263238"/>
<path d="M237.595 235.055C243.493 234.252 249.148 232.211 254.181 229.07C254.181 229.07 254.879 238.227 247.116 240.125C241.161 241.588 238.857 234.876 238.857 234.876" stroke="#263238" stroke-linecap="round" stroke-linejoin="round"/>
<path d="M259.411 178.18C259.411 178.18 257.288 204.036 280.395 213.428L291.226 188.573L274.84 170.637L250.166 163.595C213.293 165.87 197.424 188.488 217.892 248.762C217.892 248.791 212.165 177.009 259.411 178.18Z" fill="#263238"/>
<path d="M275.328 214.524C275.003 211.617 282.45 204.216 284.965 208.964C289.257 217.063 286.131 224.068 281.695 226.9C279.707 228.137 277.183 230.459 275.414 228.269" fill="white"/>
<path d="M275.328 214.524C275.003 211.617 282.45 204.216 284.965 208.964C289.257 217.063 286.131 224.068 281.695 226.9C279.707 228.137 277.183 230.459 275.414 228.269" stroke="#263238" stroke-linecap="round" stroke-linejoin="round"/>
<path d="M230.635 211.456C230.874 213.561 232.308 215.137 233.847 214.968C235.387 214.798 236.448 212.966 236.218 210.861C235.989 208.756 234.545 207.18 233.006 207.349C231.467 207.519 230.396 209.304 230.635 211.456Z" fill="#263238"/>
<g opacity="0.2">
<path d="M214.622 207.17C214.345 208.916 214.154 210.691 214.049 212.456" stroke="white" stroke-linecap="round" stroke-linejoin="round"/>
<path d="M255.587 173.478C236.907 172.997 219.546 184.749 215.435 203.205" stroke="white" stroke-linecap="round" stroke-linejoin="round"/>
<path d="M252.25 168.211C252.25 168.211 225.31 161.952 215.215 179.595" stroke="white" stroke-linecap="round" stroke-linejoin="round"/>
<path d="M274.104 198.947C275.729 201.231 277.684 203.266 279.907 204.989" stroke="white" stroke-linecap="round" stroke-linejoin="round"/>
<path d="M263.417 171.656C264.793 180.106 267.687 188.246 271.963 195.69" stroke="white" stroke-linecap="round" stroke-linejoin="round"/>
<path d="M290.481 251.67C290.003 253.784 289.439 255.88 288.808 257.957" stroke="white" stroke-linecap="round" stroke-linejoin="round"/>
<path d="M288.923 216.516C293.292 226.097 292.995 238.02 291.198 248.102" stroke="white" stroke-linecap="round" stroke-linejoin="round"/>
<path d="M285.72 233.168C285.933 236.797 285.366 240.429 284.056 243.827C282.746 247.224 280.723 250.309 278.12 252.879" stroke="white" stroke-linecap="round" stroke-linejoin="round"/>
<path d="M273.302 174.743C277.881 180.86 281.284 187.421 286.59 193.01C292.183 198.891 297.775 205.631 298.827 213.919" stroke="white" stroke-linecap="round" stroke-linejoin="round"/>
<path d="M266.839 168.381C268.151 169.23 269.357 170.228 270.433 171.354" stroke="white" stroke-linecap="round" stroke-linejoin="round"/>
</g>
<path d="M358.988 310.34C358.452 310.453 357.917 310.548 357.362 310.623C342.908 312.662 326.694 300.824 321.226 286.617C316.904 275.393 320.681 262.659 322.746 257.212C323.396 255.503 323.864 254.512 323.864 254.512C332.583 242.24 383.27 266.265 383.863 279.518C384.455 292.772 373.796 307.13 358.988 310.34Z" fill="#263238" stroke="#263238" stroke-linecap="round" stroke-linejoin="round"/>
<path d="M374.848 281.311C374.848 281.311 371.98 302.382 357.362 310.623C342.908 312.662 326.694 300.824 321.226 286.617C316.904 275.393 320.681 262.658 322.746 257.211C339.829 247.573 374.848 281.311 374.848 281.311Z" fill="white"/>
<mask id="mask1_25_573" style="mask-type:luminance" maskUnits="userSpaceOnUse" x="319" y="255" width="56" height="56">
<path d="M374.848 281.311C374.848 281.311 371.98 302.382 357.362 310.623C342.908 312.662 326.694 300.824 321.226 286.617C316.904 275.393 320.681 262.658 322.746 257.211C339.829 247.573 374.848 281.311 374.848 281.311Z" fill="white"/>
</mask>
<g mask="url(#mask1_25_573)">
<path opacity="0.4" d="M374.848 281.311C374.848 281.311 371.98 302.382 357.362 310.623C342.908 312.662 326.694 300.824 321.226 286.617C316.904 275.393 320.681 262.658 322.746 257.211C339.829 247.573 374.848 281.311 374.848 281.311Z" fill="#FE75BD" fill-opacity="0.6"/>
</g>
<path d="M374.848 281.311C374.848 281.311 371.98 302.382 357.362 310.623C342.908 312.662 326.694 300.824 321.226 286.617C316.904 275.393 320.681 262.658 322.746 257.211C339.829 247.573 374.848 281.311 374.848 281.311Z" stroke="#263238" stroke-linecap="round" stroke-linejoin="round"/>
<path d="M315.069 292.403C315.069 292.403 331.531 315.739 350.757 317.684C369.982 319.628 382.305 303.637 383.06 291.582" stroke="#263238" stroke-linecap="round" stroke-linejoin="round"/>
<path d="M305.815 187.101C307.259 183.108 317.641 184.448 320.939 196.909C324.237 209.37 337.191 239.663 337.191 239.663C337.191 239.663 388.815 164.7 398.031 161.811C407.247 158.922 403.623 171.912 391.262 189.933C391.262 189.933 402.839 187.922 405.879 189.933C408.92 191.943 407.438 204.093 409.053 208.303C411.768 215.411 405.736 216.912 405.736 216.912C408.695 216.978 411.541 218.048 413.795 219.942C417.112 223.01 415.449 235.688 416.395 239.276C417.342 242.863 411.013 245.884 411.013 245.884C411.013 245.884 426.223 254.068 422.791 256.126C416.998 259.581 413.7 256.041 413.7 256.041C413.7 256.041 390.325 285.022 372.697 291.479C355.068 297.936 320.757 272.278 317.067 258.307C313.377 244.335 317.784 245.194 314.983 221.944C312.182 198.693 305.815 187.101 305.815 187.101Z" fill="white" stroke="#263238" stroke-linecap="round" stroke-linejoin="round"/>
<path d="M381.079 141.041L313.103 158.537C310.692 159.158 309.247 161.592 309.875 163.973L342.007 285.693C342.636 288.075 345.1 289.502 347.512 288.881L415.487 271.385C417.899 270.764 419.344 268.33 418.715 265.949L386.584 144.228C385.955 141.847 383.49 140.42 381.079 141.041Z" fill="white" stroke="#263238" stroke-linecap="round" stroke-linejoin="round"/>
<path d="M342.133 155.033C342.17 155.171 342.178 155.315 342.158 155.456C342.138 155.598 342.09 155.734 342.017 155.857C341.944 155.98 341.847 156.088 341.732 156.174C341.616 156.26 341.485 156.323 341.345 156.359C341.205 156.395 341.059 156.403 340.916 156.384C340.772 156.364 340.634 156.317 340.51 156.244C340.385 156.172 340.276 156.076 340.189 155.962C340.102 155.848 340.038 155.718 340.002 155.58C339.963 155.442 339.952 155.297 339.971 155.155C339.989 155.013 340.037 154.876 340.11 154.752C340.183 154.628 340.28 154.519 340.396 154.433C340.512 154.347 340.645 154.284 340.785 154.249C341.069 154.177 341.371 154.219 341.623 154.366C341.876 154.513 342.059 154.753 342.133 155.033Z" fill="#FE75BD" fill-opacity="0.6" stroke="#263238" stroke-linecap="round" stroke-linejoin="round"/>
<path d="M356.139 151.427C356.162 151.514 356.167 151.604 356.154 151.693C356.142 151.782 356.112 151.867 356.065 151.944C356.019 152.022 355.958 152.089 355.885 152.143C355.812 152.197 355.73 152.236 355.642 152.258C355.51 152.29 355.371 152.284 355.243 152.239C355.115 152.195 355.003 152.113 354.922 152.006C354.84 151.898 354.793 151.77 354.785 151.636C354.778 151.502 354.811 151.368 354.88 151.253C354.949 151.137 355.052 151.045 355.174 150.986C355.296 150.928 355.434 150.907 355.568 150.926C355.703 150.944 355.829 151.002 355.93 151.091C356.032 151.18 356.104 151.297 356.139 151.427Z" fill="#FE75BD" fill-opacity="0.6" stroke="#263238" stroke-linecap="round" stroke-linejoin="round"/>
<path d="M352.792 153.13L344.585 155.218C344.421 155.26 344.323 155.425 344.365 155.587L344.408 155.752C344.45 155.914 344.617 156.011 344.781 155.969L352.988 153.881C353.152 153.839 353.251 153.674 353.208 153.512L353.165 153.347C353.123 153.185 352.956 153.088 352.792 153.13Z" fill="#FE75BD" fill-opacity="0.6" stroke="#263238" stroke-width="1.0017" stroke-linecap="round" stroke-linejoin="round"/>
<path d="M384.542 145.489L416.405 266.208C416.583 266.885 416.481 267.604 416.123 268.207C415.764 268.811 415.178 269.249 414.493 269.427L347.391 286.692C346.706 286.868 345.977 286.767 345.366 286.413C344.755 286.06 344.311 285.481 344.132 284.804L312.268 164.086C312.091 163.408 312.192 162.689 312.55 162.086C312.909 161.483 313.495 161.044 314.18 160.867L327.956 157.317C328.398 157.203 328.865 157.224 329.294 157.38C329.723 157.535 330.093 157.816 330.356 158.186L331.359 159.592C331.622 159.962 331.992 160.243 332.421 160.398C332.85 160.553 333.317 160.575 333.759 160.461L363.997 152.682C364.435 152.569 364.827 152.329 365.124 151.992C365.421 151.655 365.608 151.238 365.661 150.794L365.842 149.085C365.892 148.641 366.078 148.222 366.376 147.885C366.673 147.548 367.067 147.308 367.506 147.197L381.282 143.648C381.961 143.471 382.684 143.565 383.293 143.909C383.903 144.254 384.352 144.821 384.542 145.489Z" fill="#A661FF" fill-opacity="0.55" stroke="#263238" stroke-linecap="round" stroke-linejoin="round"/>
<path d="M386.879 213.23C393.113 199.051 386.527 182.565 372.167 176.409C357.808 170.252 341.113 176.756 334.878 190.935C328.643 205.115 335.23 221.6 349.589 227.757C363.949 233.913 380.644 227.409 386.879 213.23Z" fill="white" stroke="#263238" stroke-linecap="round" stroke-linejoin="round"/>
<path d="M349.169 218.158C349.412 218.721 349.856 219.175 350.418 219.433C350.979 219.691 351.618 219.735 352.21 219.555L361.531 216.903C361.551 217.101 361.589 217.297 361.645 217.488C361.786 217.969 362.022 218.418 362.339 218.809C362.656 219.2 363.048 219.525 363.492 219.767C363.936 220.008 364.425 220.161 364.929 220.216C365.433 220.272 365.943 220.228 366.43 220.089C366.917 219.949 367.372 219.717 367.768 219.404C368.164 219.091 368.493 218.704 368.738 218.265C368.982 217.826 369.137 217.344 369.193 216.847C369.249 216.349 369.205 215.845 369.064 215.364C369.005 215.173 368.931 214.987 368.844 214.807L378.155 212.155C378.763 211.994 379.288 211.614 379.627 211.089C379.965 210.565 380.091 209.935 379.981 209.323C379.922 208.99 379.793 208.673 379.602 208.393C379.41 208.113 379.161 207.876 378.87 207.698C378.58 207.519 378.254 207.404 377.915 207.358C377.576 207.313 377.231 207.339 376.903 207.435L376.119 206.963C374.42 205.959 373.17 204.357 372.62 202.479L370.852 196.427C370.123 193.936 368.506 191.788 366.299 190.383C364.091 188.977 361.443 188.408 358.844 188.781C359.29 188.316 359.569 187.719 359.638 187.082C359.706 186.445 359.56 185.804 359.223 185.257C358.885 184.71 358.375 184.288 357.77 184.056C357.166 183.823 356.5 183.794 355.877 183.973C355.254 184.151 354.708 184.527 354.323 185.043C353.938 185.558 353.735 186.184 353.747 186.825C353.758 187.465 353.982 188.084 354.385 188.586C354.788 189.088 355.347 189.445 355.976 189.602C353.552 190.648 351.597 192.53 350.477 194.897C349.358 197.264 349.151 199.953 349.896 202.46L351.684 208.577C352.002 209.645 352.081 210.769 351.916 211.871C351.751 212.973 351.345 214.026 350.728 214.958C350.404 215.055 350.104 215.217 349.847 215.434C349.59 215.651 349.382 215.919 349.235 216.22C349.089 216.521 349.007 216.848 348.996 217.182C348.984 217.516 349.044 217.848 349.169 218.158ZM358.357 186.383C358.451 186.706 358.446 187.049 358.343 187.37C358.24 187.69 358.043 187.973 357.777 188.182C357.511 188.392 357.188 188.519 356.849 188.547C356.51 188.576 356.17 188.505 355.872 188.342C355.574 188.18 355.332 187.934 355.175 187.636C355.019 187.337 354.955 187 354.993 186.666C355.031 186.332 355.168 186.017 355.387 185.76C355.606 185.503 355.898 185.316 356.225 185.222C356.442 185.159 356.67 185.139 356.895 185.163C357.12 185.187 357.338 185.255 357.536 185.363C357.735 185.471 357.909 185.617 358.05 185.792C358.191 185.967 358.295 186.168 358.357 186.383Z" fill="#FE75BD" fill-opacity="0.6" stroke="#263238" stroke-linecap="round" stroke-linejoin="round"/>
<path d="M367.152 214.958L363.041 216.138" stroke="#263238" stroke-linecap="round" stroke-linejoin="round"/>
<path d="M373.232 208.463L354.389 213.844" stroke="#263238" stroke-linecap="round" stroke-linejoin="round"/>
<path d="M392.916 246.062L354.676 255.899C353.583 256.183 352.443 256.252 351.322 256.102C350.202 255.951 349.122 255.584 348.146 255.021C347.169 254.458 346.314 253.711 345.63 252.821C344.947 251.932 344.447 250.918 344.16 249.838C343.872 248.758 343.803 247.632 343.956 246.525C344.109 245.418 344.481 244.352 345.052 243.387C345.623 242.423 346.381 241.579 347.283 240.904C348.185 240.229 349.212 239.737 350.307 239.454L388.547 229.618C390.749 229.057 393.086 229.38 395.048 230.515C397.009 231.651 398.436 233.507 399.015 235.678C399.599 237.854 399.284 240.169 398.141 242.116C396.997 244.063 395.118 245.482 392.916 246.062Z" fill="#263238"/>
<path d="M350.46 244.109C350.592 243.887 350.77 243.695 350.983 243.547C351.195 243.399 351.438 243.298 351.693 243.249C351.94 243.167 352.203 243.139 352.462 243.167C352.721 243.194 352.971 243.277 353.194 243.41C353.634 243.733 353.935 244.209 354.036 244.741L354.103 244.986L352.927 245.289L352.841 244.968C352.805 244.756 352.697 244.563 352.535 244.42C352.459 244.373 352.373 244.343 352.283 244.333C352.194 244.323 352.103 244.334 352.019 244.363C351.931 244.378 351.848 244.413 351.776 244.466C351.705 244.518 351.647 244.587 351.607 244.665C351.536 244.867 351.536 245.087 351.607 245.289C351.684 245.598 351.858 245.876 352.105 246.081C352.419 246.327 352.759 246.539 353.118 246.714C353.428 246.868 353.728 247.042 354.017 247.233C354.268 247.405 354.491 247.616 354.676 247.856C354.889 248.139 355.045 248.459 355.135 248.8C355.308 249.319 355.273 249.882 355.039 250.377C354.743 250.801 354.301 251.105 353.796 251.235C353.291 251.365 352.755 251.312 352.286 251.085C351.834 250.769 351.525 250.292 351.426 249.754L351.302 249.272L352.477 248.97L352.621 249.527C352.755 250.037 353.032 250.235 353.462 250.122C353.892 250.009 354.045 249.706 353.911 249.178C353.833 248.869 353.659 248.592 353.414 248.385C353.102 248.14 352.762 247.931 352.401 247.762C352.092 247.601 351.792 247.425 351.502 247.233C351.251 247.061 351.028 246.851 350.843 246.61C350.628 246.329 350.472 246.008 350.384 245.666C350.216 245.155 350.243 244.601 350.46 244.109Z" fill="white"/>
<path d="M357.037 248.404C357.171 248.904 357.458 249.102 357.888 248.998C358.318 248.894 358.462 248.573 358.328 248.054L356.741 242.032L357.917 241.729L359.485 247.667C359.657 248.186 359.623 248.749 359.389 249.244C359.257 249.468 359.078 249.661 358.863 249.811C358.649 249.961 358.404 250.064 358.146 250.112C357.897 250.19 357.635 250.217 357.375 250.191C357.115 250.165 356.864 250.087 356.636 249.961C356.191 249.634 355.885 249.157 355.775 248.621L354.208 242.683L355.45 242.362L357.037 248.404Z" fill="white"/>
<path d="M362.152 241.126C362.364 241.269 362.544 241.454 362.682 241.668C362.82 241.882 362.913 242.122 362.955 242.372L363.022 242.646C363.127 242.985 363.15 243.344 363.089 243.693C363.028 243.982 362.869 244.242 362.639 244.43C363.318 244.505 363.777 244.987 364.007 245.855L364.169 246.497C364.255 246.742 364.29 247.001 364.27 247.259C364.25 247.518 364.177 247.769 364.054 247.998C363.91 248.216 363.722 248.403 363.502 248.546C363.281 248.689 363.033 248.785 362.773 248.829L360.861 249.339L358.796 241.532L360.708 241.041C361.183 240.89 361.698 240.92 362.152 241.126ZM360.842 244.383L361.33 244.26C361.433 244.242 361.531 244.204 361.618 244.147C361.705 244.09 361.78 244.016 361.836 243.929C361.924 243.708 361.924 243.462 361.836 243.24L361.722 242.806C361.684 242.588 361.573 242.388 361.406 242.24C361.33 242.188 361.243 242.155 361.152 242.143C361.06 242.132 360.967 242.142 360.88 242.174L360.278 242.325L360.842 244.383ZM361.798 247.904L362.506 247.715C362.596 247.701 362.683 247.668 362.759 247.617C362.835 247.567 362.899 247.5 362.945 247.422C363.021 247.215 363.021 246.988 362.945 246.78L362.764 246.101C362.719 245.835 362.584 245.592 362.381 245.412C362.28 245.356 362.168 245.321 362.053 245.312C361.938 245.302 361.821 245.317 361.712 245.355L361.158 245.506L361.798 247.904Z" fill="white"/>
<path d="M363.758 240.719C363.887 240.496 364.065 240.303 364.278 240.154C364.491 240.006 364.734 239.905 364.991 239.86C365.238 239.777 365.499 239.747 365.759 239.773C366.018 239.799 366.268 239.88 366.492 240.011C366.936 240.337 367.239 240.816 367.343 241.352L367.41 241.597L366.234 241.899L366.148 241.569C366.114 241.357 366.001 241.166 365.833 241.031C365.759 240.982 365.675 240.951 365.587 240.939C365.499 240.928 365.41 240.936 365.326 240.965C365.237 240.98 365.153 241.015 365.08 241.067C365.007 241.119 364.947 241.188 364.905 241.267C364.834 241.469 364.834 241.688 364.905 241.89C364.978 242.199 365.149 242.476 365.393 242.683C365.712 242.926 366.055 243.138 366.416 243.315C366.779 243.504 367.075 243.684 367.314 243.835C367.562 244.012 367.784 244.221 367.974 244.458C368.186 244.74 368.339 245.061 368.423 245.402C368.604 245.918 368.573 246.484 368.337 246.978C368.204 247.201 368.025 247.394 367.81 247.544C367.596 247.694 367.352 247.797 367.094 247.847C366.844 247.926 366.58 247.953 366.318 247.927C366.057 247.902 365.804 247.823 365.574 247.696C365.13 247.37 364.826 246.892 364.724 246.355L364.59 245.883L365.766 245.572L365.919 246.138C366.052 246.638 366.33 246.836 366.76 246.723C367.19 246.61 367.333 246.308 367.2 245.779C367.124 245.474 366.954 245.2 366.712 244.996C366.396 244.747 366.053 244.535 365.689 244.363C365.384 244.203 365.087 244.026 364.8 243.835C364.544 243.668 364.321 243.457 364.14 243.212C363.918 242.934 363.762 242.612 363.682 242.268C363.513 241.76 363.541 241.209 363.758 240.719Z" fill="white"/>
<path d="M372.745 244.269C372.917 244.787 372.883 245.351 372.649 245.846C372.515 246.068 372.335 246.259 372.121 246.407C371.907 246.555 371.663 246.657 371.406 246.705C371.158 246.788 370.895 246.817 370.634 246.791C370.374 246.765 370.122 246.684 369.896 246.554C369.443 246.238 369.134 245.76 369.035 245.222L367.965 241.163C367.789 240.646 367.82 240.082 368.051 239.587C368.184 239.363 368.363 239.171 368.578 239.021C368.792 238.871 369.036 238.768 369.293 238.718C369.544 238.639 369.808 238.611 370.069 238.637C370.331 238.663 370.584 238.742 370.813 238.869C371.258 239.195 371.561 239.673 371.664 240.21L371.865 240.965L370.689 241.267L370.469 240.427C370.335 239.917 370.058 239.719 369.628 239.832C369.198 239.946 369.054 240.248 369.188 240.776L370.297 244.986C370.431 245.496 370.708 245.694 371.138 245.581C371.569 245.468 371.722 245.166 371.588 244.637L371.291 243.523L372.467 243.221L372.745 244.269Z" fill="white"/>
<path d="M376.406 244.939C376.332 244.746 376.271 244.547 376.224 244.345L375.899 243.118C375.852 242.845 375.714 242.596 375.507 242.41C375.405 242.348 375.291 242.31 375.172 242.297C375.053 242.284 374.932 242.296 374.819 242.334L374.398 242.447L375.23 245.629L373.987 245.95L371.932 238.143L373.844 237.652C374.082 237.546 374.342 237.497 374.603 237.51C374.864 237.523 375.118 237.597 375.344 237.726C375.57 237.855 375.762 238.036 375.904 238.253C376.045 238.47 376.132 238.717 376.157 238.973L376.32 239.596C376.443 239.898 376.472 240.23 376.402 240.548C376.332 240.866 376.167 241.156 375.928 241.381C376.237 241.418 376.518 241.574 376.712 241.815C376.942 242.118 377.105 242.465 377.19 242.834L377.505 244.043C377.563 244.26 377.62 244.439 377.668 244.571C377.722 244.707 377.796 244.834 377.888 244.949L376.626 245.279C376.537 245.176 376.463 245.062 376.406 244.939ZM374.102 241.333L374.58 241.211C374.685 241.191 374.784 241.15 374.873 241.092C374.961 241.034 375.037 240.958 375.096 240.871C375.182 240.652 375.182 240.41 375.096 240.191L374.886 239.417C374.854 239.199 374.746 238.998 374.58 238.851C374.502 238.799 374.413 238.766 374.32 238.754C374.227 238.743 374.133 238.753 374.045 238.785L373.452 238.936L374.102 241.333Z" fill="white"/>
<path d="M377.716 236.651L379.771 244.458L378.528 244.779L376.473 236.944L377.716 236.651Z" fill="white"/>
<path d="M382.008 236C382.217 236.143 382.395 236.327 382.531 236.539C382.668 236.751 382.759 236.989 382.802 237.236L382.878 237.52C382.978 237.857 383.001 238.211 382.945 238.558C382.88 238.845 382.722 239.103 382.496 239.294C383.175 239.379 383.624 239.851 383.863 240.729L384.025 241.371C384.11 241.614 384.144 241.872 384.124 242.129C384.104 242.385 384.032 242.635 383.911 242.863C383.768 243.083 383.58 243.271 383.359 243.416C383.139 243.56 382.89 243.658 382.63 243.703L380.718 244.203L378.576 236.415L380.488 235.934C380.984 235.757 381.53 235.781 382.008 236ZM380.698 239.257L381.186 239.134C381.392 239.093 381.573 238.974 381.693 238.804C381.781 238.582 381.781 238.336 381.693 238.114L381.578 237.68C381.537 237.46 381.427 237.258 381.263 237.104C381.184 237.054 381.095 237.022 381.002 237.011C380.91 236.999 380.816 237.009 380.727 237.038L380.134 237.199L380.698 239.257ZM381.654 242.768L382.362 242.589C382.453 242.572 382.539 242.537 382.615 242.485C382.691 242.433 382.754 242.365 382.802 242.287C382.88 242.083 382.88 241.858 382.802 241.654L382.63 240.975C382.585 240.706 382.45 240.46 382.247 240.276C382.145 240.222 382.033 240.19 381.918 240.182C381.802 240.174 381.687 240.19 381.578 240.229L381.024 240.371L381.654 242.768Z" fill="white"/>
<path d="M387.018 237.765L387.314 238.888L385.603 239.322L386.205 241.607L388.356 241.059L388.652 242.173L385.259 243.042L383.203 235.235L386.587 234.366L386.884 235.48L384.742 236.037L385.316 238.208L387.018 237.765Z" fill="white"/>
<path d="M389.321 233.658C389.571 233.578 389.835 233.548 390.096 233.573C390.358 233.597 390.612 233.674 390.841 233.8C391.283 234.113 391.585 234.584 391.683 235.112L392.725 239.067C392.905 239.578 392.874 240.137 392.639 240.625C392.503 240.845 392.321 241.034 392.105 241.179C391.889 241.324 391.644 241.422 391.386 241.465L389.417 241.975L387.352 234.168L389.321 233.658ZM390.363 240.54L391.061 240.361C391.151 240.343 391.235 240.308 391.309 240.255C391.384 240.203 391.446 240.136 391.492 240.059C391.563 239.857 391.563 239.637 391.492 239.436L390.421 235.376C390.378 235.166 390.263 234.976 390.096 234.838C390.02 234.795 389.936 234.768 389.848 234.758C389.761 234.748 389.673 234.756 389.589 234.782L388.882 234.961L390.363 240.54Z" fill="white"/>
<path d="M299.983 352.952C299.983 352.952 288.378 326.284 294.247 293.942" stroke="#263238" stroke-linecap="round" stroke-linejoin="round"/>
<path d="M271.667 381.763C271.667 381.763 248.206 388.843 245.855 394.176C243.503 399.51 256.371 395.016 256.371 395.016" stroke="#263238" stroke-linecap="round" stroke-linejoin="round"/>
<path d="M286.093 272.41C286.093 272.41 264.487 293.556 250.032 299.191" stroke="#263238" stroke-linecap="round" stroke-linejoin="round"/>
<path d="M215.301 266.727C215.301 266.727 211.362 295.273 226.056 300.663" stroke="#263238" stroke-linecap="round" stroke-linejoin="round"/>
<path d="M173.715 324.368C173.715 324.368 173.6 286.947 181.124 275.374" stroke="#263238" stroke-linecap="round" stroke-linejoin="round"/>
<path d="M170.904 286.239C170.904 286.239 168.791 309.481 173.543 317.061" stroke="#263238" stroke-linecap="round" stroke-linejoin="round"/>
<path d="M155.436 329.89C155.436 329.89 139.002 324.302 135.599 331.231C132.196 338.16 145.398 332.014 145.398 332.014" stroke="#263238" stroke-linecap="round" stroke-linejoin="round"/>
<path d="M165.321 354.15C165.321 354.15 149.184 363.128 148.352 368.263" stroke="#263238" stroke-linecap="round" stroke-linejoin="round"/>
<path d="M191.678 329.323C191.678 329.323 222.566 375.419 239.612 371.19" stroke="#263238" stroke-linecap="round" stroke-linejoin="round"/>
<path d="M212.777 393.979C212.777 393.979 188.561 411.509 185.053 410.027" stroke="#263238" stroke-linecap="round" stroke-linejoin="round"/>
<path opacity="0.2" d="M382.4 319.175C384.035 317.854 385.115 316.976 385.469 316.702C385.106 317.014 384.054 317.92 382.4 319.175Z" fill="black"/>
</svg>
