<svg width="174" height="63" viewBox="0 0 174 63" fill="none" xmlns="http://www.w3.org/2000/svg">
<rect x="80" width="94" height="46" rx="4.23267" fill="#9957EC" fill-opacity="0.6"/>
<path d="M1.32514 28.6169L6.48244 28.1155C6.79283 29.8465 7.41959 31.118 8.36271 31.9298C9.31776 32.7416 10.6011 33.1475 12.2128 33.1475C13.9199 33.1475 15.2033 32.7893 16.0628 32.073C16.9343 31.3448 17.3701 30.4972 17.3701 29.5302C17.3701 28.9094 17.185 28.3841 16.815 27.9543C16.4568 27.5126 15.8241 27.1306 14.9168 26.8083C14.296 26.5934 12.8813 26.2114 10.6727 25.6622C7.83146 24.9579 5.83778 24.0923 4.69171 23.0656C3.08006 21.6211 2.27423 19.8602 2.27423 17.783C2.27423 16.4459 2.65028 15.1984 3.40239 14.0404C4.16643 12.8704 5.25878 11.981 6.67942 11.3722C8.11201 10.7633 9.83708 10.4589 11.8546 10.4589C15.1496 10.4589 17.6267 11.1812 19.2862 12.6257C20.9575 14.0702 21.835 15.9982 21.9185 18.4098L16.618 18.6425C16.3911 17.2935 15.9017 16.3265 15.1496 15.7416C14.4094 15.1447 13.2932 14.8462 11.8009 14.8462C10.2609 14.8462 9.05512 15.1626 8.18363 15.7953C7.62254 16.2012 7.34199 16.7444 7.34199 17.4248C7.34199 18.0456 7.60463 18.5769 8.12991 19.0186C8.79845 19.5797 10.422 20.1647 13.0007 20.7735C15.5793 21.3824 17.4835 22.0151 18.7131 22.6717C19.9547 23.3164 20.9217 24.2057 21.6141 25.3399C22.3185 26.4621 22.6706 27.8529 22.6706 29.5123C22.6706 31.0165 22.2528 32.4252 21.4171 33.7384C20.5815 35.0516 19.3996 36.0305 17.8715 36.6752C16.3434 37.3079 14.4393 37.6243 12.1591 37.6243C8.84024 37.6243 6.29143 36.8602 4.51264 35.3321C2.73385 33.7921 1.67135 31.5537 1.32514 28.6169ZM27.0937 10.9066H32.3943V25.125C32.3943 27.3813 32.46 28.8437 32.5913 29.5123C32.8181 30.5867 33.3553 31.4522 34.2029 32.1088C35.0625 32.7535 36.2324 33.0758 37.7128 33.0758C39.217 33.0758 40.3511 32.7714 41.1152 32.1626C41.8792 31.5418 42.3388 30.7837 42.494 29.8883C42.6492 28.993 42.7268 27.5067 42.7268 25.4294V10.9066H48.0274V24.6952C48.0274 27.8469 47.8841 30.0734 47.5976 31.3746C47.3111 32.6759 46.7798 33.7742 46.0038 34.6696C45.2398 35.5649 44.2131 36.2812 42.9238 36.8185C41.6345 37.3437 39.9512 37.6064 37.8739 37.6064C35.3669 37.6064 33.4628 37.3199 32.1615 36.7468C30.8722 36.1619 29.8515 35.4097 29.0994 34.4905C28.3473 33.5593 27.8518 32.5864 27.6131 31.5716C27.2668 30.0674 27.0937 27.8469 27.0937 24.9101V10.9066ZM53.6503 10.9066H64.1439C66.2212 10.9066 67.7672 10.9961 68.7819 11.1752C69.8086 11.3423 70.7219 11.7005 71.5217 12.2496C72.3335 12.7988 73.0081 13.533 73.5453 14.4522C74.0825 15.3595 74.3511 16.3803 74.3511 17.5144C74.3511 18.744 74.0168 19.8722 73.3483 20.8989C72.6917 21.9256 71.7963 22.6956 70.6622 23.2089C72.2619 23.6745 73.4915 24.4684 74.3511 25.5906C75.2106 26.7128 75.6404 28.0319 75.6404 29.5481C75.6404 30.7419 75.3599 31.9059 74.7988 33.04C74.2496 34.1622 73.4915 35.0635 72.5246 35.744C71.5695 36.4126 70.3876 36.8244 68.9789 36.9796C68.0955 37.0751 65.9645 37.1348 62.586 37.1587H53.6503V10.9066ZM58.9508 15.276V21.3465H62.4248C64.4901 21.3465 65.7735 21.3167 66.2749 21.257C67.1822 21.1496 67.8925 20.8392 68.4059 20.3258C68.9312 19.8006 69.1938 19.1141 69.1938 18.2665C69.1938 17.4547 68.967 16.7981 68.5133 16.2967C68.0716 15.7833 67.409 15.473 66.5256 15.3655C66.0003 15.3058 64.4901 15.276 61.9951 15.276H58.9508ZM58.9508 25.7159V32.7356H63.8574C65.7675 32.7356 66.9793 32.6819 67.4926 32.5744C68.2805 32.4312 68.9192 32.085 69.4087 31.5358C69.9101 30.9747 70.1608 30.2286 70.1608 29.2974C70.1608 28.5095 69.9698 27.8409 69.5878 27.2918C69.2057 26.7426 68.6506 26.3427 67.9224 26.092C67.2061 25.8413 65.6422 25.7159 63.2307 25.7159H58.9508ZM90.3602 37.1587V10.9066H95.6608V21.2391H106.047V10.9066H111.348V37.1587H106.047V25.6801H95.6608V37.1587H90.3602ZM116.809 10.9066H122.11V25.125C122.11 27.3813 122.176 28.8437 122.307 29.5123C122.534 30.5867 123.071 31.4522 123.918 32.1088C124.778 32.7535 125.948 33.0758 127.428 33.0758C128.933 33.0758 130.067 32.7714 130.831 32.1626C131.595 31.5418 132.054 30.7837 132.21 29.8883C132.365 28.993 132.442 27.5067 132.442 25.4294V10.9066H137.743V24.6952C137.743 27.8469 137.6 30.0734 137.313 31.3746C137.027 32.6759 136.495 33.7742 135.719 34.6696C134.955 35.5649 133.929 36.2812 132.639 36.8185C131.35 37.3437 129.667 37.6064 127.589 37.6064C125.082 37.6064 123.178 37.3199 121.877 36.7468C120.588 36.1619 119.567 35.4097 118.815 34.4905C118.063 33.5593 117.567 32.5864 117.329 31.5716C116.982 30.0674 116.809 27.8469 116.809 24.9101V10.9066ZM143.366 10.9066H153.86C155.937 10.9066 157.483 10.9961 158.497 11.1752C159.524 11.3423 160.437 11.7005 161.237 12.2496C162.049 12.7988 162.724 13.533 163.261 14.4522C163.798 15.3595 164.067 16.3803 164.067 17.5144C164.067 18.744 163.732 19.8722 163.064 20.8989C162.407 21.9256 161.512 22.6956 160.378 23.2089C161.977 23.6745 163.207 24.4684 164.067 25.5906C164.926 26.7128 165.356 28.0319 165.356 29.5481C165.356 30.7419 165.075 31.9059 164.514 33.04C163.965 34.1622 163.207 35.0635 162.24 35.744C161.285 36.4126 160.103 36.8244 158.694 36.9796C157.811 37.0751 155.68 37.1348 152.302 37.1587H143.366V10.9066ZM148.666 15.276V21.3465H152.14C154.206 21.3465 155.489 21.3167 155.99 21.257C156.898 21.1496 157.608 20.8392 158.121 20.3258C158.647 19.8006 158.909 19.1141 158.909 18.2665C158.909 17.4547 158.683 16.7981 158.229 16.2967C157.787 15.7833 157.125 15.473 156.241 15.3655C155.716 15.3058 154.206 15.276 151.711 15.276H148.666ZM148.666 25.7159V32.7356H153.573C155.483 32.7356 156.695 32.6819 157.208 32.5744C157.996 32.4312 158.635 32.085 159.124 31.5358C159.626 30.9747 159.876 30.2286 159.876 29.2974C159.876 28.5095 159.685 27.8409 159.303 27.2918C158.921 26.7426 158.366 26.3427 157.638 26.092C156.922 25.8413 155.358 25.7159 152.946 25.7159H148.666Z" fill="white"/>
<path d="M0.508967 56.5234L2.48981 56.3308C2.60903 56.9957 2.84976 57.484 3.212 57.7958C3.57882 58.1076 4.07174 58.2635 4.69075 58.2635C5.34645 58.2635 5.83937 58.126 6.16951 57.8509C6.50424 57.5712 6.6716 57.2456 6.6716 56.8742C6.6716 56.6358 6.60053 56.434 6.45838 56.2689C6.32082 56.0993 6.0778 55.9526 5.72932 55.8288C5.49089 55.7462 4.94753 55.5995 4.09925 55.3886C3.00795 55.118 2.24221 54.7856 1.80202 54.3913C1.18301 53.8364 0.873498 53.1601 0.873498 52.3623C0.873498 51.8487 1.01793 51.3696 1.30681 50.9248C1.60027 50.4754 2.01982 50.1338 2.56547 49.9C3.11571 49.6661 3.77828 49.5492 4.55319 49.5492C5.81874 49.5492 6.77018 49.8266 7.40754 50.3814C8.04948 50.9362 8.3865 51.6768 8.4186 52.603L6.38273 52.6924C6.29561 52.1743 6.10761 51.8029 5.81874 51.5782C5.53445 51.3489 5.10572 51.2343 4.53256 51.2343C3.94106 51.2343 3.47794 51.3558 3.14322 51.5988C2.92771 51.7547 2.81995 51.9634 2.81995 52.2247C2.81995 52.4631 2.92083 52.6672 3.12258 52.8368C3.37936 53.0524 4.00296 53.277 4.99338 53.5109C5.98381 53.7447 6.71516 53.9878 7.18745 54.2399C7.66432 54.4876 8.03572 54.8292 8.30167 55.2648C8.5722 55.6958 8.70747 56.23 8.70747 56.8673C8.70747 57.4451 8.54698 57.9861 8.22601 58.4905C7.90504 58.9949 7.4511 59.3709 6.86418 59.6185C6.27726 59.8615 5.54591 59.983 4.67012 59.983C3.39541 59.983 2.41645 59.6896 1.73324 59.1026C1.05003 58.5111 0.641941 57.6514 0.508967 56.5234ZM15.214 59.8042V58.7106C14.9481 59.1004 14.5973 59.4076 14.1617 59.6323C13.7307 59.8569 13.2744 59.9693 12.793 59.9693C12.3023 59.9693 11.8621 59.8615 11.4724 59.646C11.0827 59.4305 10.8007 59.1279 10.6264 58.7381C10.4522 58.3484 10.3651 57.8096 10.3651 57.1218V52.4998H12.2978V55.8563C12.2978 56.8834 12.3321 57.5138 12.4009 57.7477C12.4743 57.977 12.605 58.1604 12.793 58.2979C12.981 58.4309 13.2194 58.4974 13.5083 58.4974C13.8384 58.4974 14.1342 58.408 14.3955 58.2292C14.6569 58.0457 14.8357 57.8211 14.932 57.5551C15.0283 57.2846 15.0764 56.6266 15.0764 55.5811V52.4998H17.0091V59.8042H15.214ZM18.935 59.8042V49.7211H20.8677V53.3527C21.4638 52.6741 22.1699 52.3348 22.9861 52.3348C23.8756 52.3348 24.6116 52.658 25.1939 53.3045C25.7762 53.9465 26.0674 54.8704 26.0674 56.0764C26.0674 57.3236 25.7693 58.2842 25.1733 58.9582C24.5817 59.6323 23.8619 59.9693 23.0136 59.9693C22.5963 59.9693 22.1836 59.8661 21.7756 59.6598C21.372 59.4488 21.0236 59.1393 20.7301 58.7312V59.8042H18.935ZM20.8539 55.9938C20.8539 56.7504 20.9731 57.3098 21.2116 57.672C21.5463 58.1856 21.9911 58.4424 22.5459 58.4424C22.9723 58.4424 23.3346 58.2612 23.6326 57.899C23.9352 57.5322 24.0865 56.9567 24.0865 56.1726C24.0865 55.3381 23.9352 54.7375 23.6326 54.3706C23.33 53.9992 22.9425 53.8135 22.4702 53.8135C22.0071 53.8135 21.6219 53.9946 21.3147 54.3569C21.0075 54.7145 20.8539 55.2602 20.8539 55.9938ZM26.9478 57.7202L28.8873 57.4244C28.9699 57.8004 29.1372 58.087 29.3894 58.2842C29.6416 58.4768 29.9947 58.573 30.4486 58.573C30.9484 58.573 31.3244 58.4813 31.5766 58.2979C31.7463 58.1695 31.8311 57.9976 31.8311 57.7821C31.8311 57.6354 31.7829 57.5161 31.6867 57.4244C31.595 57.3281 31.3817 57.241 31.047 57.1631C29.488 56.8192 28.4999 56.5051 28.0826 56.2208C27.5049 55.8265 27.216 55.2785 27.216 54.577C27.216 53.9442 27.4659 53.4123 27.9657 52.9813C28.4655 52.5503 29.2404 52.3348 30.2904 52.3348C31.29 52.3348 32.0328 52.4975 32.5189 52.8231C33.0049 53.1486 33.3397 53.6301 33.5231 54.2675L31.7004 54.6045C31.6225 54.3202 31.4734 54.1024 31.2533 53.9511C31.0378 53.7998 30.7283 53.7241 30.3248 53.7241C29.8159 53.7241 29.4513 53.7952 29.2312 53.9373C29.0845 54.0382 29.0111 54.1689 29.0111 54.3294C29.0111 54.4669 29.0753 54.5838 29.2037 54.6801C29.378 54.8085 29.9786 54.9896 31.0057 55.2235C32.0374 55.4573 32.755 55.7462 33.1585 56.0901C33.5666 56.4294 33.7707 56.9063 33.7707 57.5207C33.7707 58.1902 33.491 58.7656 32.9316 59.2471C32.3722 59.7285 31.5445 59.9693 30.4486 59.9693C29.4536 59.9693 28.665 59.7675 28.0826 59.364C27.5049 58.9605 27.1266 58.4126 26.9478 57.7202ZM41.8385 54.6595L39.9333 55.0034C39.8691 54.6228 39.7224 54.3362 39.4931 54.1437C39.2684 53.9511 38.975 53.8548 38.6127 53.8548C38.1313 53.8548 37.7461 54.0221 37.4573 54.3569C37.173 54.687 37.0308 55.2418 37.0308 56.0213C37.0308 56.888 37.1753 57.5001 37.4641 57.8577C37.7576 58.2154 38.1496 58.3942 38.6403 58.3942C39.0071 58.3942 39.3074 58.2911 39.5413 58.0847C39.7751 57.8738 39.9402 57.5138 40.0365 57.0049L41.9348 57.3281C41.7376 58.1993 41.3593 58.8573 40.7999 59.3021C40.2405 59.7469 39.4908 59.9693 38.5508 59.9693C37.4825 59.9693 36.6296 59.6323 35.9922 58.9582C35.3595 58.2842 35.0431 57.3511 35.0431 56.1589C35.0431 54.953 35.3618 54.0153 35.9991 53.3458C36.6365 52.6718 37.4985 52.3348 38.5852 52.3348C39.4748 52.3348 40.1809 52.5273 40.7036 52.9125C41.2309 53.2931 41.6092 53.8754 41.8385 54.6595ZM45.1605 59.8042H43.2278V52.4998H45.023V53.5384C45.3302 53.0478 45.6053 52.7245 45.8483 52.5686C46.0959 52.4127 46.3756 52.3348 46.6874 52.3348C47.1276 52.3348 47.5518 52.4563 47.9599 52.6993L47.3615 54.3844C47.0359 54.1735 46.7333 54.068 46.4536 54.068C46.1831 54.068 45.9538 54.1437 45.7658 54.295C45.5778 54.4417 45.4288 54.7099 45.3187 55.0997C45.2133 55.4894 45.1605 56.3056 45.1605 57.5482V59.8042ZM48.799 51.5094V49.7211H50.7317V51.5094H48.799ZM48.799 59.8042V52.4998H50.7317V59.8042H48.799ZM52.6644 52.4998H54.4664V53.5728C54.7002 53.206 55.0166 52.9079 55.4155 52.6787C55.8145 52.4494 56.2569 52.3348 56.743 52.3348C57.5913 52.3348 58.3112 52.6672 58.9027 53.3321C59.4942 53.9969 59.7899 54.9232 59.7899 56.1107C59.7899 57.3304 59.4919 58.2796 58.8958 58.9582C58.2997 59.6323 57.5775 59.9693 56.7292 59.9693C56.3257 59.9693 55.9589 59.889 55.6288 59.7285C55.3032 59.5681 54.9593 59.2929 54.5971 58.9032V62.5829H52.6644V52.4998ZM54.5764 56.0282C54.5764 56.849 54.7392 57.4565 55.0648 57.8509C55.3903 58.2406 55.787 58.4355 56.2547 58.4355C56.704 58.4355 57.0777 58.2567 57.3758 57.899C57.6738 57.5368 57.8228 56.9453 57.8228 56.1245C57.8228 55.3588 57.6692 54.7902 57.362 54.4188C57.0548 54.0474 56.6742 53.8617 56.2203 53.8617C55.748 53.8617 55.3559 54.0451 55.0441 54.4119C54.7323 54.7741 54.5764 55.3129 54.5764 56.0282ZM64.6801 52.4998V54.0405H63.3596V56.9842C63.3596 57.5803 63.371 57.9288 63.394 58.0297C63.4215 58.126 63.4788 58.2062 63.5659 58.2704C63.6576 58.3346 63.7677 58.3667 63.896 58.3667C64.0749 58.3667 64.3339 58.3048 64.6732 58.181L64.8383 59.6804C64.389 59.873 63.88 59.9693 63.3114 59.9693C62.9629 59.9693 62.6488 59.912 62.3691 59.7973C62.0894 59.6781 61.8831 59.5268 61.7501 59.3434C61.6217 59.1554 61.5323 58.9032 61.4819 58.5868C61.4406 58.3621 61.42 57.9082 61.42 57.225V54.0405H60.5327V52.4998H61.42V51.0486L63.3596 49.9206V52.4998H64.6801ZM66.0213 51.5094V49.7211H67.954V51.5094H66.0213ZM66.0213 59.8042V52.4998H67.954V59.8042H66.0213ZM69.4947 56.0488C69.4947 55.4069 69.6529 54.7856 69.9693 54.1849C70.2856 53.5843 70.7327 53.1257 71.3105 52.8093C71.8928 52.493 72.5416 52.3348 73.2569 52.3348C74.362 52.3348 75.2676 52.6947 75.9737 53.4146C76.6798 54.1299 77.0329 55.0355 77.0329 56.1314C77.0329 57.2364 76.6753 58.1535 75.9599 58.8826C75.2492 59.607 74.3528 59.9693 73.2707 59.9693C72.6012 59.9693 71.9616 59.818 71.3517 59.5153C70.7465 59.2127 70.2856 58.7702 69.9693 58.1879C69.6529 57.601 69.4947 56.888 69.4947 56.0488ZM71.4755 56.152C71.4755 56.8765 71.6475 57.4313 71.9914 57.8165C72.3353 58.2016 72.7594 58.3942 73.2638 58.3942C73.7682 58.3942 74.19 58.2016 74.5293 57.8165C74.8732 57.4313 75.0452 56.8719 75.0452 56.1383C75.0452 55.423 74.8732 54.8727 74.5293 54.4876C74.19 54.1024 73.7682 53.9098 73.2638 53.9098C72.7594 53.9098 72.3353 54.1024 71.9914 54.4876C71.6475 54.8727 71.4755 55.4275 71.4755 56.152ZM85.197 59.8042H83.2643V56.0764C83.2643 55.2877 83.223 54.7787 83.1405 54.5495C83.058 54.3156 82.9227 54.1345 82.7347 54.0061C82.5513 53.8777 82.3289 53.8135 82.0676 53.8135C81.7328 53.8135 81.4325 53.9052 81.1665 54.0886C80.9006 54.272 80.7172 54.5151 80.6163 54.8177C80.52 55.1203 80.4719 55.6797 80.4719 56.4959V59.8042H78.5392V52.4998H80.3343V53.5728C80.9717 52.7474 81.7741 52.3348 82.7416 52.3348C83.168 52.3348 83.5578 52.4127 83.9108 52.5686C84.2639 52.7199 84.5299 52.9148 84.7087 53.1532C84.8921 53.3917 85.0182 53.6622 85.087 53.9648C85.1603 54.2675 85.197 54.7008 85.197 55.2648V59.8042ZM86.4832 57.7202L88.4228 57.4244C88.5053 57.8004 88.6727 58.087 88.9249 58.2842C89.177 58.4768 89.5301 58.573 89.9841 58.573C90.4839 58.573 90.8598 58.4813 91.112 58.2979C91.2817 58.1695 91.3665 57.9976 91.3665 57.7821C91.3665 57.6354 91.3184 57.5161 91.2221 57.4244C91.1304 57.3281 90.9172 57.241 90.5824 57.1631C89.0234 56.8192 88.0353 56.5051 87.618 56.2208C87.0403 55.8265 86.7514 55.2785 86.7514 54.577C86.7514 53.9442 87.0013 53.4123 87.5011 52.9813C88.0009 52.5503 88.7758 52.3348 89.8259 52.3348C90.8255 52.3348 91.5683 52.4975 92.0543 52.8231C92.5404 53.1486 92.8751 53.6301 93.0585 54.2675L91.2358 54.6045C91.1579 54.3202 91.0089 54.1024 90.7888 53.9511C90.5733 53.7998 90.2638 53.7241 89.8603 53.7241C89.3513 53.7241 88.9868 53.7952 88.7667 53.9373C88.6199 54.0382 88.5466 54.1689 88.5466 54.3294C88.5466 54.4669 88.6108 54.5838 88.7392 54.6801C88.9134 54.8085 89.5141 54.9896 90.5412 55.2235C91.5729 55.4573 92.2905 55.7462 92.694 56.0901C93.1021 56.4294 93.3061 56.9063 93.3061 57.5207C93.3061 58.1902 93.0264 58.7656 92.467 59.2471C91.9076 59.7285 91.0799 59.9693 89.9841 59.9693C88.989 59.9693 88.2004 59.7675 87.618 59.364C87.0403 58.9605 86.662 58.4126 86.4832 57.7202ZM98.9116 59.8042V49.7211H101.959L103.788 56.5991L105.597 49.7211H108.651V59.8042H106.759V51.8671L104.758 59.8042H102.798L100.803 51.8671V59.8042H98.9116ZM112.104 54.7283L110.35 54.4119C110.547 53.7058 110.886 53.183 111.368 52.8437C111.849 52.5044 112.564 52.3348 113.513 52.3348C114.376 52.3348 115.017 52.4379 115.439 52.6443C115.861 52.846 116.157 53.1051 116.327 53.4215C116.501 53.7333 116.588 54.3087 116.588 55.1478L116.567 57.4038C116.567 58.0457 116.597 58.5203 116.657 58.8275C116.721 59.1302 116.838 59.4557 117.007 59.8042H115.095C115.045 59.6758 114.983 59.4855 114.91 59.2333C114.878 59.1187 114.855 59.043 114.841 59.0064C114.511 59.3273 114.158 59.5681 113.782 59.7285C113.406 59.889 113.005 59.9693 112.578 59.9693C111.826 59.9693 111.232 59.7652 110.797 59.3571C110.366 58.949 110.15 58.4332 110.15 57.8096C110.15 57.3969 110.249 57.0301 110.446 56.7091C110.643 56.3836 110.918 56.136 111.271 55.9663C111.629 55.7921 112.142 55.6408 112.812 55.5124C113.715 55.3427 114.341 55.1845 114.69 55.0378V54.8452C114.69 54.4738 114.598 54.2101 114.414 54.0542C114.231 53.8938 113.885 53.8135 113.376 53.8135C113.032 53.8135 112.764 53.8823 112.571 54.0199C112.379 54.1528 112.223 54.389 112.104 54.7283ZM114.69 56.2965C114.442 56.379 114.05 56.4776 113.513 56.5922C112.977 56.7068 112.626 56.8192 112.461 56.9292C112.209 57.108 112.083 57.335 112.083 57.6101C112.083 57.8807 112.184 58.1145 112.386 58.3117C112.587 58.5089 112.844 58.6074 113.156 58.6074C113.504 58.6074 113.837 58.4928 114.153 58.2635C114.387 58.0893 114.541 57.8761 114.614 57.6239C114.664 57.4588 114.69 57.1447 114.69 56.6816V56.2965ZM125.199 59.8042H123.404V58.7312C123.106 59.1485 122.753 59.4603 122.345 59.6666C121.941 59.8684 121.533 59.9693 121.12 59.9693C120.281 59.9693 119.561 59.6323 118.961 58.9582C118.365 58.2796 118.067 57.335 118.067 56.1245C118.067 54.8865 118.358 53.9465 118.94 53.3045C119.523 52.658 120.258 52.3348 121.148 52.3348C121.964 52.3348 122.67 52.6741 123.266 53.3527V49.7211H125.199V59.8042ZM120.041 55.9938C120.041 56.7733 120.148 57.3373 120.364 57.6858C120.676 58.1902 121.111 58.4424 121.671 58.4424C122.115 58.4424 122.494 58.2544 122.806 57.8784C123.117 57.4978 123.273 56.9315 123.273 56.1795C123.273 55.3404 123.122 54.7375 122.819 54.3706C122.517 53.9992 122.129 53.8135 121.657 53.8135C121.198 53.8135 120.813 53.9969 120.501 54.3638C120.194 54.726 120.041 55.2693 120.041 55.9938ZM131.142 58.0297H133.171C133.093 58.2498 133.006 58.4424 132.909 58.6074C132.813 58.7725 132.701 58.9147 132.572 59.0339C132.448 59.1531 132.29 59.2792 132.098 59.4122C131.561 59.7836 130.892 59.9693 130.089 59.9693C128.819 59.9693 127.879 59.5543 127.269 58.7244C126.788 58.0595 126.547 57.2204 126.547 56.207C126.547 54.9965 126.864 54.0497 127.496 53.3664C128.129 52.6787 128.929 52.3348 129.897 52.3348C130.983 52.3348 131.841 52.6924 132.469 53.4077C133.07 54.0955 133.37 55.1341 133.37 56.5234C133.37 56.583 133.37 56.6449 133.37 56.7091H128.528C128.542 57.2823 128.698 57.7294 128.996 58.0503C129.294 58.3667 129.665 58.5249 130.11 58.5249C130.303 58.5249 130.454 58.5157 130.564 58.4974C130.679 58.479 130.782 58.4332 130.873 58.3598C130.979 58.2773 131.038 58.2269 131.052 58.2085C131.071 58.1856 131.1 58.126 131.142 58.0297ZM131.451 55.5261C131.437 54.9667 131.293 54.5426 131.018 54.2537C130.743 53.9602 130.408 53.8135 130.014 53.8135C129.592 53.8135 129.243 53.9671 128.968 54.2743C128.698 54.577 128.562 54.9851 128.562 55.4986C128.562 55.5078 128.562 55.517 128.562 55.5261H131.451ZM138.886 59.8042V49.7211H146.363V51.4269H140.922V53.6622H145.984V55.3611H140.922V58.1053H146.555V59.8042H138.886ZM149.712 54.7283L147.958 54.4119C148.155 53.7058 148.495 53.183 148.976 52.8437C149.458 52.5044 150.173 52.3348 151.122 52.3348C151.984 52.3348 152.626 52.4379 153.048 52.6443C153.47 52.846 153.765 53.1051 153.935 53.4215C154.109 53.7333 154.196 54.3087 154.196 55.1478L154.176 57.4038C154.176 58.0457 154.206 58.5203 154.265 58.8275C154.329 59.1302 154.446 59.4557 154.616 59.8042H152.704C152.654 59.6758 152.592 59.4855 152.518 59.2333C152.486 59.1187 152.463 59.043 152.449 59.0064C152.119 59.3273 151.766 59.5681 151.39 59.7285C151.014 59.889 150.613 59.9693 150.187 59.9693C149.435 59.9693 148.841 59.7652 148.405 59.3571C147.974 58.949 147.759 58.4332 147.759 57.8096C147.759 57.3969 147.857 57.0301 148.054 56.7091C148.252 56.3836 148.527 56.136 148.88 55.9663C149.237 55.7921 149.751 55.6408 150.421 55.5124C151.324 55.3427 151.95 55.1845 152.298 55.0378V54.8452C152.298 54.4738 152.206 54.2101 152.023 54.0542C151.84 53.8938 151.493 53.8135 150.984 53.8135C150.641 53.8135 150.372 53.8823 150.18 54.0199C149.987 54.1528 149.831 54.389 149.712 54.7283ZM152.298 56.2965C152.051 56.379 151.659 56.4776 151.122 56.5922C150.586 56.7068 150.235 56.8192 150.07 56.9292C149.818 57.108 149.691 57.335 149.691 57.6101C149.691 57.8807 149.792 58.1145 149.994 58.3117C150.196 58.5089 150.453 58.6074 150.764 58.6074C151.113 58.6074 151.445 58.4928 151.762 58.2635C151.996 58.0893 152.149 57.8761 152.223 57.6239C152.273 57.4588 152.298 57.1447 152.298 56.6816V56.2965ZM155.428 57.7202L157.367 57.4244C157.45 57.8004 157.617 58.087 157.869 58.2842C158.122 58.4768 158.475 58.573 158.929 58.573C159.428 58.573 159.804 58.4813 160.056 58.2979C160.226 58.1695 160.311 57.9976 160.311 57.7821C160.311 57.6354 160.263 57.5161 160.167 57.4244C160.075 57.3281 159.862 57.241 159.527 57.1631C157.968 56.8192 156.98 56.5051 156.563 56.2208C155.985 55.8265 155.696 55.2785 155.696 54.577C155.696 53.9442 155.946 53.4123 156.446 52.9813C156.945 52.5503 157.72 52.3348 158.77 52.3348C159.77 52.3348 160.513 52.4975 160.999 52.8231C161.485 53.1486 161.82 53.6301 162.003 54.2675L160.18 54.6045C160.102 54.3202 159.953 54.1024 159.733 53.9511C159.518 53.7998 159.208 53.7241 158.805 53.7241C158.296 53.7241 157.931 53.7952 157.711 53.9373C157.564 54.0382 157.491 54.1689 157.491 54.3294C157.491 54.4669 157.555 54.5838 157.684 54.6801C157.858 54.8085 158.459 54.9896 159.486 55.2235C160.517 55.4573 161.235 55.7462 161.638 56.0901C162.047 56.4294 162.251 56.9063 162.251 57.5207C162.251 58.1902 161.971 58.7656 161.411 59.2471C160.852 59.7285 160.024 59.9693 158.929 59.9693C157.934 59.9693 157.145 59.7675 156.563 59.364C155.985 58.9605 155.606 58.4126 155.428 57.7202ZM163.035 52.4998H165.091L166.838 57.6858L168.544 52.4998H170.545L167.966 59.5291L167.505 60.8015C167.336 61.2279 167.173 61.5535 167.017 61.7782C166.866 62.0028 166.689 62.184 166.487 62.3215C166.29 62.4637 166.045 62.5737 165.751 62.6517C165.463 62.7296 165.135 62.7686 164.768 62.7686C164.396 62.7686 164.032 62.7296 163.674 62.6517L163.502 61.1385C163.805 61.1981 164.078 61.2279 164.321 61.2279C164.77 61.2279 165.103 61.095 165.318 60.829C165.534 60.5677 165.699 60.2329 165.813 59.8248L163.035 52.4998Z" fill="white"/>
</svg>
